<svg id="Calque_1" data-name="Calque 1" xmlns="http://www.w3.org/2000/svg" viewBox="0 0 452.99 192.26"><defs><style>.cls-1{fill:#e84e1b;}.cls-2{fill:#6f6f6e;}</style></defs><title>LEC-logo-RVB-2017</title><rect class="cls-1" x="21.46" y="179.72" width="131.82" height="1.71"/><rect class="cls-1" x="297.39" y="179.72" width="131.82" height="1.71"/><path class="cls-1" d="M144.94,68.62l.88.07a1.4,1.4,0,0,1-.44-.38C145.19,68.18,145.08,68.41,144.94,68.62Z"/><path class="cls-1" d="M146.8,68.78l.14-.09-.3.08Z"/><path class="cls-1" d="M148.19,68.52a1.72,1.72,0,0,0-.79,0A1.09,1.09,0,0,0,148.19,68.52Z"/><path class="cls-1" d="M146.93,68.68l.47-.13a1.18,1.18,0,0,1-.43-.31c.09.16.13.32,0,.43Z"/><path class="cls-1" d="M147,68.24c-.09-.16-.23-.3-.28-.39A2.28,2.28,0,0,0,147,68.24Z"/><path class="cls-1" d="M147.52,64.55c.17-.12.08.93.42.71a5.2,5.2,0,0,1,2.16-.62c.34-.21.76,1,1.1.79.77-.23,2.87-1.45,1.72-1.49-1.76,0-2.91.16-4.47.25-1.29.4-2.51.87-3.79,1.22a3,3,0,0,1-1-.12c.44.17.89.34,1.38.5C145.65,66.09,146.46,64.77,147.52,64.55Z"/><path class="cls-1" d="M138.8,67.83c.75.71,1.45.38,2.16,0l-.35-.5c-.42.09-.45.38-.06.59a3.21,3.21,0,0,0-2.53-.49c.08.28.09.61.34.74Z"/><path class="cls-1" d="M138,67.46l0-.09-.47.18,0,0Z"/><path class="cls-1" d="M130,90l1,0a1.55,1.55,0,0,1-.51-.36C130.26,89.53,130.15,89.77,130,90Z"/><path class="cls-1" d="M132.1,90.06l.15-.1-.33.09Z"/><path class="cls-1" d="M133.67,89.75a2,2,0,0,0-.89.06A1.39,1.39,0,0,0,133.67,89.75Z"/><path class="cls-1" d="M132.25,90l.53-.15a1.3,1.3,0,0,1-.5-.29c.11.16.16.32,0,.44Z"/><path class="cls-1" d="M132.27,89.52c-.1-.15-.27-.29-.33-.37A2.06,2.06,0,0,0,132.27,89.52Z"/><path class="cls-1" d="M132.69,85.81c.18-.12.14.92.49.68a7,7,0,0,1,2.31-.74c.35-.23.91.94,1.26.71.83-.29,3-1.66,1.72-1.62-1.89.13-3.12.39-4.8.56-1.37.44-2.69,1-4.08,1.38a3.55,3.55,0,0,1-1.13-.08c.48.16,1,.31,1.53.45C130.71,87.43,131.57,86.07,132.69,85.81Z"/><path class="cls-1" d="M123.07,89.14c.81.74,1.62.43,2.43.12l-.38-.51c-.47.07-.51.36-.09.58a3.94,3.94,0,0,0-2.81-.57c.07.28.07.61.34.75Z"/><path class="cls-1" d="M122.22,88.75l0-.09-.54.17,0,0Z"/><path class="cls-1" d="M114.74,111.23l1.18-.11a1.76,1.76,0,0,1-.65-.32C115,110.7,114.9,111,114.74,111.23Z"/><polygon class="cls-1" points="117.22 111.02 117.39 110.89 117.01 111.03 117.22 111.02"/><path class="cls-1" d="M119,110.46a2.69,2.69,0,0,0-1,.19A1.71,1.71,0,0,0,119,110.46Z"/><path class="cls-1" d="M117.4,110.88h0l.6-.24a1.58,1.58,0,0,1-.63-.25C117.5,110.56,117.59,110.72,117.4,110.88Z"/><path class="cls-1" d="M117.36,110.4c-.14-.15-.35-.27-.43-.36A2.35,2.35,0,0,0,117.36,110.4Z"/><path class="cls-1" d="M122.2,106.4c.93-.42,3.25-2.2,1.8-2-2.19.41-3.59.78-5.54,1.3-1.55.68-3,1.44-4.59,2.08a4.46,4.46,0,0,1-1.33.07c.59.1,1.18.2,1.84.28.88.2,1.7-1.41,3-1.85.19-.16.28,1,.67.68a8.39,8.39,0,0,1,2.6-1.18C121,105.49,121.82,106.7,122.2,106.4Z"/><path class="cls-1" d="M108.87,111.2a4.91,4.91,0,0,0-3.36-.23c.12.3.16.66.49.77l.55-.46c1,.69,1.95.24,2.86-.21l-.51-.51C108.36,110.69,108.35,111,108.87,111.2Z"/><path class="cls-1" d="M104.87,111.12l0,0,.62-.18,0-.1Z"/><path class="cls-1" d="M324.77,105.55l-1-.38a1.64,1.64,0,0,1,.42.56C324.33,105.92,324.53,105.71,324.77,105.55Z"/><path class="cls-1" d="M322.57,104.75l-.19.05.37,0Z"/><path class="cls-1" d="M320.8,104.54a2.38,2.38,0,0,0,1,.24A1.54,1.54,0,0,0,320.8,104.54Z"/><path class="cls-1" d="M322.37,104.8h0l-.61,0a1.5,1.5,0,0,1,.44.47C322.14,105.06,322.14,104.87,322.37,104.8Z"/><path class="cls-1" d="M322.2,105.25c.06.19.19.39.23.5A2.71,2.71,0,0,0,322.2,105.25Z"/><path class="cls-1" d="M320.57,109c-.22.07.15-1-.29-.89a8.1,8.1,0,0,1-2.63.09c-.43.14-.66-1.26-1.1-1.11-1,.08-3.57,1-2.26,1.26,2,.34,3.35.42,5.15.74,1.54,0,3.07-.14,4.65-.1a3.43,3.43,0,0,1,1.14.47c-.44-.34-.91-.65-1.42-1C323.15,108,321.81,109.11,320.57,109Z"/><path class="cls-1" d="M332.37,108.74l-.68.19c-.55-1.05-1.52-1-2.48-1l.2.67c.51.1.67-.19.31-.57a4.34,4.34,0,0,0,2.7,1.61C332.46,109.32,332.59,109,332.37,108.74Z"/><path class="cls-1" d="M333,109.76v0l-.6-.1v.1Z"/><path class="cls-1" d="M162,49.36l.92.25a1.58,1.58,0,0,1-.4-.41C162.33,49.05,162.18,49.22,162,49.36Z"/><path class="cls-1" d="M163.93,49.88l.16,0h-.32Z"/><path class="cls-1" d="M164.6,49.83a1.47,1.47,0,0,0,.83.19A2.26,2.26,0,0,0,164.6,49.83Z"/><path class="cls-1" d="M164.6,49.83a1.54,1.54,0,0,1-.4-.35c.07.15.09.29-.1.35A4.67,4.67,0,0,1,164.6,49.83Z"/><path class="cls-1" d="M164.2,49.48c-.07-.15-.2-.3-.23-.38A1.85,1.85,0,0,0,164.2,49.48Z"/><path class="cls-1" d="M165.35,46.56c.19-.05-.06.79.32.69a8.21,8.21,0,0,1,2.36,0c.39-.1.64,1,1,.9.83,0,3.2-.47,2-.8a44.85,44.85,0,0,0-4.7-.83c-1.39,0-2.76.16-4.16.16a5.39,5.39,0,0,1-1.06-.3l1.38.69C163.14,47.43,164.21,46.5,165.35,46.56Z"/><path class="cls-1" d="M155.64,47.55c.68.71,1.47.53,2.29.39l-.29-.48c-.45,0-.53.24-.16.47a4.18,4.18,0,0,0-2.6-.81c0,.24,0,.52.24.67Z"/><path class="cls-1" d="M154.88,47.13V47l-.53.07,0,0Z"/><path class="cls-1" d="M317.31,106.06a4.27,4.27,0,0,1-2.77-1.45c.38.36.24.66-.28.59l-.23-.66c1-.08,1.92-.16,2.53.86l.66-.23c.23.23.12.57.1.88l.6.09a6.67,6.67,0,0,0-1.34-1.73c-2.5-.62-4.82-1.3-7.08-2-.23.18-.42.4-.62.22a1.65,1.65,0,0,0-.44-.52l-1-.29H307c-.22.08-.2.27-.13.46a2.42,2.42,0,0,1,.26.49c0-.11-.18-.3-.26-.49a1.46,1.46,0,0,0-.46-.44,3.14,3.14,0,0,1-.43,0h.33l.1,0,.6,0,.19-.07-2.26-.69-.5,0c-.59,0-1.18,0-1.4-.58l-.4-.13.05.12-.13-.15-1.72-.54-3.44-.95c-7.49-2.28-14.69-2.95-22.78-4.08-4.43-.39-8.65-1.12-13-1.38a50.49,50.49,0,0,0-12.41,1.07,64.79,64.79,0,0,1-12.63,1.31,20.73,20.73,0,0,0-6.35,1.57c-2,.91-3.94,1.76-5.46,2.61.15-1.13.28-2.45.53-4.18-.22,1.84-.85,1.24-1.21-.14a10.66,10.66,0,0,1-.49-2.52,8.34,8.34,0,0,1,.09-2.89c.64-2.77-.57-5.49-2.26-7.84s-3.83-4.48-5.28-6.83a28.67,28.67,0,0,0-2.85-3.43c-5-7-12-10.91-19.2-15.89A21.93,21.93,0,0,0,188,54.05c-1.29-.58-2.44-1.65-3.47-2.18a16.17,16.17,0,0,0-4.69-1.48c1.56.58,2.8.82,4.51,1.58,1.12.53-1.27.59-2.11.48-.4,0-.47-1.09-.88-1.06a7.63,7.63,0,0,0-2.33-.37c-.4,0,0-.75-.21-.73-1.11-.25-2.33.46-2.88,0l-1.25-.91a3.53,3.53,0,0,0-.84-.37h-.64c-1.53,0-3.29-.06-4.85-.18v.08a4.26,4.26,0,0,1,2.41,1.33c-.32-.31-.2-.52.26-.43l.19.53c-.84,0-1.66,0-2.19-.85l-.57.13c-.2-.2-.11-.45-.1-.7l-.53-.07a7.94,7.94,0,0,0,1.19,1.41,48.29,48.29,0,0,1,6,2.23c.21-.1.39-.24.54-.06a1.59,1.59,0,0,0,.33.48l.81.39.32.06h0c.19,0,.2-.17.16-.33a1.37,1.37,0,0,0,.35.41l.36.1-.21,0s-.12,0-.15-.06l-.41-.07h0l-.1,0-.17,0c.62.3,1.23.6,1.82.94a3.87,3.87,0,0,0,.42.12c.5.1,1,.21,1.08.72l.32.18,0-.1.09.14c.45.24.89.51,1.33.79l2.61,1.62c5.55,3.72,10.72,7.07,15.73,11.81a55.11,55.11,0,0,1,7,8.17c2,2.85,4,5.34,5.76,8a23.12,23.12,0,0,1,2.2,4.27,6.1,6.1,0,0,1-3-3.67c-1.31-5.49-7.87-5.57-11.69-8.75a23.72,23.72,0,0,0-3.5-2c-6.27-4.66-13.55-6-21.15-8.93-2.07-.66-4.15-.36-6.06-.29-1.32-.18-2.55-1-3.6-1.33a14,14,0,0,0-4.64-.16c1.56.14,2.74.11,4.48.33,1.14.23-1.11,1.11-1.91,1.26-.37.16-.61-1.08-1-.92a6.4,6.4,0,0,0-2.23.3c-.36.16-.13-.86-.31-.78-1.07,0-2.1,1.26-2.69.86l-1.3-.69a2.5,2.5,0,0,0-.83-.2l-.59.18c-1.42.37-3,.86-4.51,1.16v.09a3.24,3.24,0,0,1,2.45.85c-.35-.26-.27-.55.16-.57l.27.55c-.78.23-1.53.45-2.16-.36l-.5.31c-.22-.16-.19-.49-.21-.77-.16,0-.33,0-.5,0a6.32,6.32,0,0,0,1.33,1.32,35.48,35.48,0,0,1,5.89.88c.18-.18.32-.4.5-.25a1.35,1.35,0,0,0,.38.44l.82.19.3,0h0c.17-.09.16-.25.09-.43a1.18,1.18,0,0,0,.38.39h.34l-.27,0-.08,0-.39,0h-.1l-.15.07,1.83.55a2.56,2.56,0,0,0,.41,0c.48,0,1-.08,1.13.48l.32.1,0-.11.1.13,1.37.44,2.69,1c5.8,2.28,11.23,4.09,16.95,7.12a62.14,62.14,0,0,1,8.55,5.52A50.88,50.88,0,0,0,198,87.85a22.72,22.72,0,0,1-5.22-.88,35.1,35.1,0,0,0-4.36-.82c-8.18-2.48-16.17-1.68-24.94-2.63-2.34-.18-4.46.61-6.45,1.07-1.44.11-2.95-.47-4.12-.53a16.52,16.52,0,0,0-5,.6c1.69-.11,2.94-.34,4.83-.4,1.26,0-.94,1.3-1.78,1.55-.36.22-.87-1-1.24-.75a7.48,7.48,0,0,0-2.34.66c-.36.22-.29-.83-.47-.72-1.14.17-2,1.53-2.76,1.23l-1.51-.5a2.91,2.91,0,0,0-.93-.08l-.62.26a45.73,45.73,0,0,1-4.8,1.55l0,.09a4,4,0,0,1,2.79.67c-.41-.24-.36-.53.12-.58l.36.53c-.83.29-1.65.57-2.43-.2l-.53.35c-.26-.15-.25-.48-.3-.76l-.55.08a6.84,6.84,0,0,0,1.59,1.21c2.34,0,4.54.08,6.68.21.17-.2.29-.43.51-.31a1.49,1.49,0,0,0,.49.38l.93.07.33-.07h0c.18-.11.13-.28,0-.43a2.61,2.61,0,0,1-.32-.39c.06.09.22.24.32.39a1.34,1.34,0,0,0,.49.32,2.8,2.8,0,0,1,.39,0L147,89l-.1,0-.53.12-.15.09,2.13.25c.16,0,.32,0,.45-.07.52-.12,1-.23,1.34.29l.38.05-.07-.1.14.11,1.61.21,3.19.42c3.48.45,6.82.92,10.19,1.3s6.78.73,10.35,1.43A90.73,90.73,0,0,1,187,95.86a41.68,41.68,0,0,0,4.6,1.19,17.64,17.64,0,0,1-4.82.25,41.51,41.51,0,0,0-5.05.27c-9.71-.75-18.59,1.62-28.88,1.9-2.71.16-5,1.41-7.3,2.15-1.66.32-3.49-.12-4.86,0a20.45,20.45,0,0,0-5.69,1.33c2-.36,3.38-.76,5.57-1.1,1.46-.18-.91,1.55-1.86,1.94-.39.29-1.15-.94-1.54-.66a8.53,8.53,0,0,0-2.64,1.05c-.39.3-.44-.86-.64-.71-1.3.39-2.19,2-3.06,1.73-.66-.11-1.25-.23-1.83-.35a3.78,3.78,0,0,0-1.1,0l-.69.36a56.05,56.05,0,0,1-5.41,2.32l0,.1a4.93,4.93,0,0,1,3.35.37c-.51-.21-.49-.53.06-.65l.49.53c-.93.42-1.86.83-2.87.1l-.58.44c-.33-.13-.35-.49-.45-.79l-.63.15a8.06,8.06,0,0,0,2,1.12c2.73-.31,5.31-.51,7.84-.64.17-.24.29-.51.56-.41a1.82,1.82,0,0,0,.63.35l1.11,0,.38-.13h0c.19-.15.12-.32,0-.48a2.57,2.57,0,0,1-.42-.38c.08.09.28.23.42.38a1.56,1.56,0,0,0,.62.27,3.63,3.63,0,0,1,.45-.11l-.34.11h-.11l-.61.22-.17.12c.84,0,1.68-.07,2.52-.07a4.79,4.79,0,0,0,.52-.13c.59-.2,1.19-.39,1.6.14h.45l-.1-.1.18.1h1.91l3.8,0c8.28.1,15.88-.36,24.49-.4,4.67,0,9.17.29,13.62.56a99.16,99.16,0,0,0,12.87-.38,46.79,46.79,0,0,1,13.18.28,16.69,16.69,0,0,0,4.36-.16,5.44,5.44,0,0,0,5.24,4h11.65a5.46,5.46,0,0,0,5.36-4.44c.29,0,.54,0,.87,0a2.83,2.83,0,0,1-.86-.16,5.36,5.36,0,0,0,.09-.9s0-.09,0-.13a3.41,3.41,0,0,1,.61-.37,6.64,6.64,0,0,1,5.55,0c2.81,1.39,5.47,1,8.2.11s5.58-2,8.37-1.75c1.38.14,2.81-.37,4.4-.32,8.22,1,16.44-.4,25.53,1.32,2.41.29,4.71-.38,6.87-.55,1.53.09,3,.95,4.23,1.17a18.82,18.82,0,0,0,5.31.25c-1.81-.19-3.15-.22-5.14-.45-1.32-.18,1.21-1.29,2.15-1.38.43-.17.74,1.22,1.16,1a8.08,8.08,0,0,0,2.6-.27c.43-.17.12.95.34.87,1.24,0,2.5-1.21,3.19-.73.53.31,1,.63,1.46.93a3,3,0,0,0,.95.33l.71-.11a47.09,47.09,0,0,1,5.49-.38ZM178,53.51h0Zm5.9,3a1.7,1.7,0,0,1,1.23,1.15C184.39,57.72,184.1,57.16,183.89,56.56ZM166.32,70.61a1.43,1.43,0,0,1,1.33.9C167,71.78,166.61,71.24,166.32,70.61ZM147.32,89h0Zm6.91.51a1.7,1.7,0,0,1,1.68.59C155.22,90.47,154.69,90,154.23,89.47Zm-19.36,18.24Zm8.15-.4a2.11,2.11,0,0,1,2,.42C144.31,108.27,143.63,107.85,143,107.31ZM296.8,99.09c.81-.35,1.33.23,1.74.9A1.89,1.89,0,0,1,296.8,99.09Z"/><path class="cls-1" d="M249.66,3.19l-.66.5a1.29,1.29,0,0,1,.49-.06C249.69,3.58,249.65,3.39,249.66,3.19Z"/><polygon class="cls-1" points="248.27 4.23 248.22 4.36 248.39 4.14 248.27 4.23"/><path class="cls-1" d="M247.43,5.23a2.06,2.06,0,0,0,.52-.51A1.3,1.3,0,0,0,247.43,5.23Z"/><path class="cls-1" d="M248.21,4.37h0l-.26.36a1,1,0,0,1,.45-.11C248.26,4.58,248.16,4.52,248.21,4.37Z"/><path class="cls-1" d="M248.4,4.61c.13,0,.3,0,.38,0A1.63,1.63,0,0,0,248.4,4.61Z"/><path class="cls-1" d="M247.1,10.38c.93-1.11,1.49-1.89,2.36-2.86.57-1,1.17-1.83,1.83-2.75a2.48,2.48,0,0,1,.74-.49,11.21,11.21,0,0,0-1.14.48c-.57.21-.49,1.37-1,2.05,0,.15-.51-.42-.61-.11a6.44,6.44,0,0,1-1,1.62c-.09.31-1,0-1,.32C246.89,9.24,246.45,11.1,247.1,10.38Z"/><path class="cls-1" d="M253.22,1.19a3.54,3.54,0,0,0,2.13-.87c-.14-.14-.26-.34-.49-.31l-.23.45c-.81-.1-1.28.44-1.71,1l.45.14C253.67,1.33,253.59,1.13,253.22,1.19Z"/><path class="cls-1" d="M255.71,0h0l-.34.29.05,0Z"/><path class="cls-1" d="M223.43,70.95c2,1.2,1.46.07,2-.71s0-6.61.47-8.11a5,5,0,0,1-.21-1.78,4.28,4.28,0,0,1,.7-1.95c1.31-1.66,1.44-3.41,1.52-5.43s0-4.2.86-6.09c.37-.94.55-2,.91-3.15,2.66-5.68,3.87-11.54,7.39-17.27a25.77,25.77,0,0,0,1.64-4.67,16.45,16.45,0,0,1,2-2.47A16.67,16.67,0,0,0,242.47,16l-1.86,3.2c-.51.81-.39-1.11-.16-1.74,0-.32,1-.17,1-.49a6.83,6.83,0,0,0,.68-1.74c0-.32.6.17.63,0,.42-.77.14-1.91.66-2.21.35-.26.71-.46,1-.66a2.33,2.33,0,0,0,.52-.5l.19-.48A25.16,25.16,0,0,1,247,7.88l-.05,0A3.52,3.52,0,0,1,245,9.11c.35-.12.47.05.23.35l-.47,0c.32-.61.64-1.23,1.46-1.3,0,0,.09-.32.12-.48.22-.08.38.1.54.21l.27-.34a4.57,4.57,0,0,0-1.5.29l-3.76,3.88c0,.2.09.38-.09.46a1.23,1.23,0,0,0-.46.14l-.51.56-.13.24h0c0,.16.09.2.23.2a1.47,1.47,0,0,1,.37,0c-.08,0-.24,0-.37,0a1.09,1.09,0,0,0-.42.18s-.07.08-.09.12l0-.07.05,0,.2-.39,0-.14c-.4.42-.8.84-1.17,1.28a3.38,3.38,0,0,0-.18.33c-.18.39-.35.78-.8.77l-.21.23h.09l-.13,0c-.29.33-.58.66-.86,1l-1.66,2a77,77,0,0,0-8.74,14.58c-1.45,2.91-2.79,5.76-4.07,8.62a35.66,35.66,0,0,0-2.34,8.84C220.27,53.61,222.25,69.75,223.43,70.95Zm13.45-52.76a1.6,1.6,0,0,1-1.08.94C235.84,18.5,236.35,18.29,236.88,18.18Z"/><path class="cls-1" d="M301.28,43.89l-.94.26a1.5,1.5,0,0,1,.55.12C301.12,44.29,301.18,44.08,301.28,43.89Z"/><path class="cls-1" d="M299.3,44.43l-.12.11.29-.16Z"/><path class="cls-1" d="M297.91,45.11a2.69,2.69,0,0,0,.81-.3A1.69,1.69,0,0,0,297.91,45.11Z"/><path class="cls-1" d="M299.17,44.55h0l-.45.26a1.48,1.48,0,0,1,.54.06C299.13,44.79,299,44.69,299.17,44.55Z"/><path class="cls-1" d="M299.26,44.87c.13.08.32.13.39.17A1.84,1.84,0,0,0,299.26,44.87Z"/><path class="cls-1" d="M296.24,48.59c-.61.53-1.86,2.27-.87,1.76,1.47-.79,2.35-1.52,3.71-2.19,1-.67,2.06-1.4,3.2-2.07a4,4,0,0,1,1-.25l-1.42.09c-.7,0-1.15,1.21-2,1.69-.12.13-.36-.62-.6-.36-.65.41-1.09,1-1.73,1.32C297.27,48.88,296.45,48.29,296.24,48.59Z"/><path class="cls-1" d="M306.06,43.34a4.54,4.54,0,0,0,2.69,0c-.08-.2-.1-.45-.36-.51l-.46.35a2.43,2.43,0,0,0-2.31.29l.42.33C306.47,43.67,306.48,43.44,306.06,43.34Z"/><path class="cls-1" d="M309.27,43.2l0,0-.5.16,0,.07Z"/><path class="cls-1" d="M264.95,68.65a87.91,87.91,0,0,1-8.68,6.4c-1.44,1-2.81,1.93-4.17,2.86s-2.62,2-4,2.77A32.37,32.37,0,0,1,243.84,83a29.08,29.08,0,0,1-4.75,1.42,13.29,13.29,0,0,0-4.58,1.43c-4.48,2.49-5,6.51-4.7,6.64,1.36,1.12,12.17-1.87,13.89-1.77a10.14,10.14,0,0,0,7.3-2.47c1.11-.83,2.25-1.69,3.32-2.57a21.31,21.31,0,0,1,3.31-2.39A24.79,24.79,0,0,0,261,80.7c6.87-4.47,11.21-10.64,17.36-15.87,1.59-1.41,2.48-3.26,3.62-4.66A31.81,31.81,0,0,1,285.05,58a18.9,18.9,0,0,0,3.21-3.1c-1.15,1-1.93,1.82-3.22,2.91-.86.74,0-1.29.5-1.89.16-.33,1.09.08,1.24-.25a8.18,8.18,0,0,0,1.38-1.7c.17-.34.58.34.66.17.73-.74.89-1.95,1.57-2.12l1.37-.41a3.17,3.17,0,0,0,.75-.39l.38-.46a24,24,0,0,1,3.4-3l0-.06a4.47,4.47,0,0,1-2.57.68c.43,0,.48.21.11.43l-.49-.2a2.37,2.37,0,0,1,2.13-.86l.34-.45c.27,0,.36.22.49.4l.44-.27a6,6,0,0,0-1.74-.18c-1,.5-2,.89-2.92,1.42l-2.71,1.53c-.06.21-.06.42-.28.45a1.62,1.62,0,0,0-.56,0l-.79.43a2.77,2.77,0,0,0-.23.22h0c-.09.17,0,.24.17.28a1.33,1.33,0,0,0-.51.09l-.13.1.06-.06.07,0,.28-.31h0l.07-.08.08-.14-1.73,1.09-.31.3c-.34.38-.67.74-1.15.61l-.31.2h.1l-.15,0-1.32.82L280.15,56C274.62,59.84,270.22,64.22,264.95,68.65Zm16.47-12.88a1.9,1.9,0,0,1-1.5.73C280.2,55.85,280.82,55.76,281.42,55.77Z"/><path class="cls-1" d="M282.11,17.67l-.18.91a1.44,1.44,0,0,1,.37-.43C282.42,18,282.25,17.84,282.11,17.67Z"/><path class="cls-1" d="M281.73,19.59l0,.15c0-.11,0-.21,0-.31Z"/><path class="cls-1" d="M281.82,20.24a1.8,1.8,0,0,0-.11.82A1.75,1.75,0,0,0,281.82,20.24Z"/><path class="cls-1" d="M281.78,19.75h0l0,.51a1.26,1.26,0,0,1,.3-.42C282,19.9,281.85,19.93,281.78,19.75Z"/><path class="cls-1" d="M282.12,19.82c.13-.08.27-.21.35-.25A1.75,1.75,0,0,0,282.12,19.82Z"/><path class="cls-1" d="M283.64,24.53c0,.82.42,3.2.75,2a32.85,32.85,0,0,0,.72-4.77c-.07-1.4-.31-2.74-.41-4.12a4.17,4.17,0,0,1,.16-1.08c-.17.45-.3.92-.51,1.42s.61,1.63.63,2.77c.06.19-.75,0-.62.37a7.85,7.85,0,0,1,.1,2.35C284.56,23.85,283.54,24.15,283.64,24.53Z"/><path class="cls-1" d="M283.07,13.56l.42-.33c0-.44-.28-.5-.46-.11a4.24,4.24,0,0,0,.51-2.63c-.23.06-.49.05-.61.3l.28.49A2.22,2.22,0,0,0,283.07,13.56Z"/><path class="cls-1" d="M283.48,10l0,0,.07.51.08,0Z"/><path class="cls-1" d="M248.32,56.7a41.35,41.35,0,0,0-8.15,7c-2.47,2.64-4.81,5.41-7.64,8.4A15.66,15.66,0,0,0,231,74.37a28.68,28.68,0,0,0-1.3,2.93,38.26,38.26,0,0,0-1.53,5.6c.47,4.1,10.66-7.43,12.26-8,2.31-.83,3.64-2.48,5-4.38s2.81-4,4.86-5.29c1-.66,1.88-1.58,3-2.46,6.4-3.92,11.78-8.93,18.52-14.54a19.78,19.78,0,0,0,3.69-5.32c.89-1.13,2.16-2.09,2.92-3a14.26,14.26,0,0,0,2.29-4.52,34.82,34.82,0,0,1-2.34,4.33c-.75,1-.29-1.35,0-2.17,0-.39,1.14-.32,1.19-.73a7.69,7.69,0,0,0,.7-2.3c0-.39.72.06.74-.14.42-1.09-.19-2.38.35-2.89.36-.43.7-.81,1-1.21a3.59,3.59,0,0,0,.39-.84l0-.64c.13-1.54.15-3.29.23-4.85h-.08a4,4,0,0,1-1.26,2.42c.3-.32.51-.2.41.25l-.5.19c0-.83,0-1.63.83-2.17,0,0-.07-.37-.13-.56.17-.21.42-.13.65-.13,0-.17,0-.35.05-.53a3.88,3.88,0,0,0-.82.72l-.49.51a27.72,27.72,0,0,1-2.32,5.82c.08.21.2.39,0,.54a1.58,1.58,0,0,0-.48.29l-.43.76c0,.1-.05.2-.08.31h0c0,.19.13.21.29.18a1.46,1.46,0,0,0-.45.29c0,.05-.06.1-.08.15l0-.08.06-.07.13-.38h0l0-.1v-.16l-1.14,1.65-.16.39c-.14.48-.35.94-.86.95l-.22.28h.1l-.14.06-1,1.16-2.06,2.17a104.11,104.11,0,0,1-15.2,12C254.55,52.9,251.43,54.77,248.32,56.7Zm25.8-18.27a1.64,1.64,0,0,1-1.35.94C272.93,38.69,273.51,38.52,274.12,38.43Z"/><path class="cls-2" d="M0,156.93V135.36H4.16v17.56H14.57v4Z"/><path class="cls-2" d="M17.66,156.93V135.36h4.16v21.57Z"/><path class="cls-2" d="M35.84,139.37v17.56H31.68V139.37H25.51v-4H42v4Z"/><path class="cls-2" d="M54.48,139.37v17.56H50.32V139.37H44.15v-4H60.64v4Z"/><path class="cls-2" d="M64.18,156.93V135.36H78.91v3.94H68.34v4.53h6.22v3.95H68.34V153H79.56v3.94Zm3.95-23.57,4.38-4.81h5L72,133.36Z"/><path class="cls-2" d="M83.41,156.93V135.36h10q3.79,0,5.5,1.89a7.39,7.39,0,0,1,.62,8.6,5.8,5.8,0,0,1-3.1,2.48l4.19,8.6H96l-4-8H87.57v8Zm4.16-12h5.92a2.67,2.67,0,0,0,2.16-.8,3.37,3.37,0,0,0,0-4,2.67,2.67,0,0,0-2.17-.8H87.57Z"/><path class="cls-2" d="M119,156.93l-1.66-4.47H109l-1.66,4.47h-4.47l8.26-21.57h4.07l8.26,21.57Zm-3-8.26-2.13-5.61a17.53,17.53,0,0,1-.68-1.94,17.46,17.46,0,0,1-.68,1.94l-2.13,5.61Z"/><path class="cls-2" d="M132.74,139.37v17.56h-4.16V139.37h-6.16v-4h16.49v4Z"/><path class="cls-2" d="M151,157.3a11.2,11.2,0,0,1-3.22-.45,8.46,8.46,0,0,1-2.76-1.42,6.44,6.44,0,0,1-2-2.7,10.46,10.46,0,0,1-.72-4.07V135.36h4.16v13.31a4.69,4.69,0,0,0,1.14,3.59,6.06,6.06,0,0,0,6.76,0,4.65,4.65,0,0,0,1.16-3.59V135.36h4.16v13.31q0,4.47-2.46,6.55A9.33,9.33,0,0,1,151,157.3Z"/><path class="cls-2" d="M164.45,156.93V135.36h10q3.79,0,5.5,1.89a7.39,7.39,0,0,1,.62,8.6,5.8,5.8,0,0,1-3.1,2.48l4.19,8.6H177l-4-8h-4.34v8Zm4.16-12h5.92a2.67,2.67,0,0,0,2.16-.8,3.37,3.37,0,0,0,0-4,2.67,2.67,0,0,0-2.17-.8h-5.92Z"/><path class="cls-2" d="M185.83,156.93V135.36h14.73v3.94H190v4.53h6.22v3.95H190V153h11.22v3.94Z"/><path class="cls-2" d="M212.21,157.3a8.82,8.82,0,0,1-5.24-1.57,8.43,8.43,0,0,1-3.14-4.34l3.79-1.42a6.31,6.31,0,0,0,1.94,2.47,4.5,4.5,0,0,0,2.77.92,4.26,4.26,0,0,0,2.54-.68,2.25,2.25,0,0,0,.94-1.94,2.11,2.11,0,0,0-.31-1.14,2.72,2.72,0,0,0-1-.89,13.23,13.23,0,0,0-1.31-.63q-.57-.23-1.71-.6-1.29-.43-2-.68a14.17,14.17,0,0,1-1.74-.83,6.34,6.34,0,0,1-1.63-1.19,5.88,5.88,0,0,1-1-1.6,5.62,5.62,0,0,1,1.53-6.47A7.85,7.85,0,0,1,212,135a7.69,7.69,0,0,1,4.67,1.39,6.53,6.53,0,0,1,2.51,3.6l-3.73,1.23a3.7,3.7,0,0,0-3.7-2.28,3.59,3.59,0,0,0-2.11.54,1.77,1.77,0,0,0-.75,1.53,1.48,1.48,0,0,0,.62,1.16,4.88,4.88,0,0,0,1.26.77q.65.26,2,.72l1.67.59q.58.22,1.6.68a6.63,6.63,0,0,1,1.59,1,14.42,14.42,0,0,1,1.2,1.19,4.12,4.12,0,0,1,.91,1.63,7.2,7.2,0,0,1,.28,2,5.82,5.82,0,0,1-2.2,4.81A8.7,8.7,0,0,1,212.21,157.3Z"/><path class="cls-2" d="M231.72,156.93V135.36h14.73v3.94H235.88v4.53h6.22v3.95h-6.22V153h11.22v3.94Z"/><path class="cls-2" d="M259.48,157.3a11.2,11.2,0,0,1-3.22-.45,8.49,8.49,0,0,1-2.76-1.42,6.43,6.43,0,0,1-2-2.7,10.45,10.45,0,0,1-.73-4.07V135.36H255v13.31a4.69,4.69,0,0,0,1.14,3.59,6.06,6.06,0,0,0,6.76,0,4.65,4.65,0,0,0,1.16-3.59V135.36h4.16v13.31q0,4.47-2.47,6.55A9.32,9.32,0,0,1,259.48,157.3Z"/><path class="cls-2" d="M272.95,156.93V135.36h10q3.79,0,5.5,1.89a7.39,7.39,0,0,1,.62,8.6,5.81,5.81,0,0,1-3.1,2.48l4.19,8.6h-4.68l-4-8H277.1v8Zm4.16-12H283a2.67,2.67,0,0,0,2.16-.8,3.38,3.38,0,0,0,0-4,2.67,2.67,0,0,0-2.17-.8H277.1Z"/><path class="cls-2" d="M306.42,156.66a10.63,10.63,0,0,1-7.3,0,7.58,7.58,0,0,1-2.71-1.74,10.39,10.39,0,0,1-1.8-2.54,11.47,11.47,0,0,1-1-3,17,17,0,0,1,0-6.44,11.47,11.47,0,0,1,1-3,10.39,10.39,0,0,1,1.8-2.54,7.61,7.61,0,0,1,2.71-1.74,10.63,10.63,0,0,1,7.3,0,7.6,7.6,0,0,1,2.71,1.74,10,10,0,0,1,1.79,2.54,11.8,11.8,0,0,1,1,3,17,17,0,0,1,0,6.44,11.8,11.8,0,0,1-1,3,10,10,0,0,1-1.79,2.54A7.57,7.57,0,0,1,306.42,156.66Zm-3.65-3.36a4.4,4.4,0,0,0,2.4-.66,4.65,4.65,0,0,0,1.63-1.76,9.31,9.31,0,0,0,.86-2.3,10.85,10.85,0,0,0,.28-2.43,11.28,11.28,0,0,0-.28-2.53,9.15,9.15,0,0,0-.85-2.26,4.46,4.46,0,0,0-1.62-1.71,4.88,4.88,0,0,0-4.88,0,4.47,4.47,0,0,0-1.63,1.76,9.72,9.72,0,0,0-.85,2.28,10.71,10.71,0,0,0-.28,2.45,11.48,11.48,0,0,0,.46,3.33,5.91,5.91,0,0,0,1.69,2.68A4.32,4.32,0,0,0,302.77,153.3Z"/><path class="cls-2" d="M316.42,156.93V135.36h9.24a9.24,9.24,0,0,1,3.44.59,5.68,5.68,0,0,1,2.3,1.57,6.67,6.67,0,0,1,1.23,2.16,7.69,7.69,0,0,1,.4,2.5,6.88,6.88,0,0,1-1.86,4.75,7,7,0,0,1-5.5,2.06h-5.08v7.95ZM325.85,145a2.65,2.65,0,0,0,2.16-.85,3,3,0,0,0,.71-2,3.15,3.15,0,0,0-.68-2,2.61,2.61,0,0,0-2.19-.86h-5.27V145Z"/><path class="cls-2" d="M336.11,156.93V135.36h14.73v3.94H340.27v4.53h6.22v3.95h-6.22V153h11.22v3.94Zm3.94-23.57,4.38-4.81h5l-5.49,4.81Z"/><path class="cls-2" d="M355.34,156.93V135.36h14.73v3.94H359.5v4.53h6.22v3.95H359.5V153h11.22v3.94Z"/><path class="cls-2" d="M391.76,156.93h-3.7l-8.57-12.57a12.46,12.46,0,0,1-.89-1.63,13.68,13.68,0,0,1,.09,1.63v12.57h-4.13V135.36h3.91l8.35,12.42q.52.86.89,1.63a13.2,13.2,0,0,1-.09-1.63V135.36h4.13Z"/><path class="cls-2" d="M413.88,156.93h-3.7l-8.57-12.57a12.46,12.46,0,0,1-.89-1.63,13.68,13.68,0,0,1,.09,1.63v12.57h-4.13V135.36h3.91L409,147.78q.52.86.89,1.63a13.2,13.2,0,0,1-.09-1.63V135.36h4.13Z"/><path class="cls-2" d="M418.81,156.93V135.36h14.73v3.94H423v4.53h6.22v3.95H423V153h11.22v3.94Z"/><path class="cls-2" d="M445.19,157.3a8.82,8.82,0,0,1-5.24-1.57,8.43,8.43,0,0,1-3.14-4.34L440.6,150a6.31,6.31,0,0,0,1.94,2.47,4.5,4.5,0,0,0,2.77.92,4.26,4.26,0,0,0,2.54-.68,2.25,2.25,0,0,0,.94-1.94,2.11,2.11,0,0,0-.31-1.14,2.72,2.72,0,0,0-1-.89,13.23,13.23,0,0,0-1.31-.63q-.57-.23-1.71-.6-1.29-.43-2-.68a14.17,14.17,0,0,1-1.74-.83,6.34,6.34,0,0,1-1.63-1.19,5.88,5.88,0,0,1-1-1.6,5.62,5.62,0,0,1,1.53-6.47,7.85,7.85,0,0,1,5.33-1.71,7.69,7.69,0,0,1,4.67,1.39,6.53,6.53,0,0,1,2.51,3.6l-3.73,1.23a3.7,3.7,0,0,0-3.7-2.28,3.59,3.59,0,0,0-2.11.54,1.77,1.77,0,0,0-.75,1.53,1.48,1.48,0,0,0,.62,1.16,4.88,4.88,0,0,0,1.26.77q.65.26,2,.72l1.67.59q.58.22,1.6.68a6.63,6.63,0,0,1,1.59,1,14.42,14.42,0,0,1,1.2,1.19,4.12,4.12,0,0,1,.91,1.63,7.2,7.2,0,0,1,.28,2,5.82,5.82,0,0,1-2.2,4.81A8.7,8.7,0,0,1,445.19,157.3Z"/><path class="cls-2" d="M174.08,192.23a8.9,8.9,0,0,1-4.25-1,7.26,7.26,0,0,1-2.83-2.62,12.52,12.52,0,0,1-1.49-3.53,16.17,16.17,0,0,1-.48-4,14.92,14.92,0,0,1,.49-3.84,13.46,13.46,0,0,1,1.51-3.54,7.68,7.68,0,0,1,2.84-2.71,8.41,8.41,0,0,1,4.22-1A8.19,8.19,0,0,1,179,171.4a7.88,7.88,0,0,1,2.82,3.45l-3.73,1.7a6.9,6.9,0,0,0-1.76-1.94,3.81,3.81,0,0,0-2.22-.62,3.77,3.77,0,0,0-2.82,1.16,6,6,0,0,0-1.52,2.68,12.86,12.86,0,0,0-.4,3.28,9.91,9.91,0,0,0,1.22,5,3.84,3.84,0,0,0,3.53,2.16q2.25,0,3.91-2.77l3.82,1.45Q179.41,192.23,174.08,192.23Z"/><path class="cls-2" d="M197.61,191.61a10.63,10.63,0,0,1-7.3,0,7.57,7.57,0,0,1-2.71-1.74,10.4,10.4,0,0,1-1.8-2.54,11.52,11.52,0,0,1-1-3,16.92,16.92,0,0,1,0-6.44,11.52,11.52,0,0,1,1-3,10.4,10.4,0,0,1,1.8-2.54,7.6,7.6,0,0,1,2.71-1.74,10.63,10.63,0,0,1,7.3,0,7.61,7.61,0,0,1,2.71,1.74,10.13,10.13,0,0,1,1.79,2.54,11.86,11.86,0,0,1,1,3,17,17,0,0,1,0,6.44,11.86,11.86,0,0,1-1,3,10.13,10.13,0,0,1-1.79,2.54A7.58,7.58,0,0,1,197.61,191.61ZM194,188.25a4.4,4.4,0,0,0,2.4-.66,4.63,4.63,0,0,0,1.63-1.76,9.25,9.25,0,0,0,.86-2.3,10.85,10.85,0,0,0,.28-2.43,11.29,11.29,0,0,0-.28-2.53,9.15,9.15,0,0,0-.85-2.26,4.46,4.46,0,0,0-1.62-1.71,4.88,4.88,0,0,0-4.88,0,4.47,4.47,0,0,0-1.63,1.76,9.65,9.65,0,0,0-.85,2.28,10.71,10.71,0,0,0-.28,2.45,11.54,11.54,0,0,0,.46,3.33,5.93,5.93,0,0,0,1.7,2.68A4.32,4.32,0,0,0,194,188.25Z"/><path class="cls-2" d="M216.33,192.26a9.34,9.34,0,0,1-4.27-.94,7.94,7.94,0,0,1-3-2.54,11.68,11.68,0,0,1-1.68-3.54,14.92,14.92,0,0,1-.56-4.13,13.51,13.51,0,0,1,.59-4,12.77,12.77,0,0,1,1.71-3.56,8.36,8.36,0,0,1,3-2.63,8.75,8.75,0,0,1,4.21-1A7.88,7.88,0,0,1,221,171.2a11.47,11.47,0,0,1,3.1,3.37l-3.67,2.1q-1.79-2.71-4.07-2.71a4.59,4.59,0,0,0-2.48.66,4.36,4.36,0,0,0-1.62,1.76,9.63,9.63,0,0,0-.82,2.28,11.29,11.29,0,0,0-.26,2.45,9.39,9.39,0,0,0,1.29,5.08,4.28,4.28,0,0,0,3.88,2.06,3.77,3.77,0,0,0,2.66-1,3.24,3.24,0,0,0,1.09-2.47v-.25h-3.67v-3.95h7.92v3.17a8.46,8.46,0,0,1-2.25,6.26A7.8,7.8,0,0,1,216.33,192.26Z"/><path class="cls-2" d="M245.54,191.89h-3.7l-8.57-12.57a12.46,12.46,0,0,1-.89-1.63,13.68,13.68,0,0,1,.09,1.63v12.57h-4.13V170.32h3.91l8.35,12.42q.52.86.89,1.63a13.2,13.2,0,0,1-.09-1.63V170.32h4.13Z"/><path class="cls-2" d="M264.8,191.89l-1.67-4.47h-8.32l-1.67,4.47h-4.47l8.26-21.57H261l8.26,21.57Zm-3-8.26L259.65,178a17.54,17.54,0,0,1-.68-1.94,17.81,17.81,0,0,1-.68,1.94l-2.13,5.61Z"/><path class="cls-2" d="M279.77,192.23a8.9,8.9,0,0,1-4.25-1,7.28,7.28,0,0,1-2.84-2.62,12.62,12.62,0,0,1-1.49-3.53,16.25,16.25,0,0,1-.48-4,14.92,14.92,0,0,1,.49-3.84,13.41,13.41,0,0,1,1.51-3.54,7.66,7.66,0,0,1,2.84-2.71,8.41,8.41,0,0,1,4.22-1,8.19,8.19,0,0,1,4.88,1.42,7.88,7.88,0,0,1,2.82,3.45l-3.73,1.7A6.89,6.89,0,0,0,282,174.6a3.82,3.82,0,0,0-2.22-.62,3.77,3.77,0,0,0-2.82,1.16,5.94,5.94,0,0,0-1.52,2.68,12.86,12.86,0,0,0-.4,3.28,9.92,9.92,0,0,0,1.22,5,3.85,3.85,0,0,0,3.53,2.16q2.25,0,3.91-2.77l3.82,1.45Q285.1,192.23,279.77,192.23Z"/></svg>