<?xml version="1.0" encoding="UTF-8"?> <svg xmlns="http://www.w3.org/2000/svg" id="Layer_1" data-name="Layer 1" viewBox="0 0 512 512"> <defs> <style>.cls-1{fill:#e84e1b;}.cls-2{fill:#20d0c2;}.cls-3{fill:#dfe1e3;}.cls-4{fill:#fff;}.cls-5{fill:#ecf0f1;}.cls-6{fill:#efb29d;}.cls-7{fill:#c3cccf;}.cls-8{fill:#fed198;}.cls-9{fill:#666;}.cls-10{fill:#c8cacc;}</style> </defs> <title>Actions-culuturelles</title> <path class="cls-1" d="M256,0C397.39,0,512,114.61,512,256S397.39,512,256,512,0,397.38,0,256,114.62,0,256,0Z"></path> <path class="cls-2" d="M67.16,113.22H444.84V360.49H67.16Z"></path> <path class="cls-3" d="M437.42,113.22H256V350.35H437.42Z"></path> <path class="cls-4" d="M431,113.22c-58.33,0-114-24.87-175,0V335.35H431Z"></path> <path class="cls-3" d="M74.58,113.22H256V350.35H74.58Z"></path> <path class="cls-4" d="M81,113.22c58.33,0,142.63-24.44,175,0V335.35H81Z"></path> <path class="cls-5" d="M253,113.22H259V335.35H253V113.22Z"></path> <path class="cls-6" d="M96,125.51h93.43v12.84H96Z"></path> <path class="cls-7" d="M96,201.66H231v4.19H96Zm180,0H411v4.19H276Zm0-55.33H411v4.19H276Zm0,42.3H335.1v4.19H276Zm0-8.46H411v4.19H276Zm0-8.46H411v4.19H276Zm0-8.46H335.1v4.19H276Zm0-8.46H411V159H276Zm0,55.33h90.58v4.19H276ZM96,146.34H231v4.19H96Zm0,42.3H155.1v4.19H96Zm0-8.46H231v4.19H96Zm0-8.46H231v4.19H96Zm0-8.46H231v4.19H96Zm0-8.46H231V159H96ZM96,244h46.49v4.19H96Zm0-8.46H231v4.19H96ZM96,227H231v4.19H96Zm0-8.46H231v4.19H96Zm0-8.46H231v4.19H96Z"></path> <path class="cls-8" d="M119.49,347.11l-4.41,117.74a406,406,0,0,0,57.59,11.8q5-.38,10-1l-5.4-130.79c5.76-2.7,13.53-9.38,15.23-14.18l0,0L227.07,283a8.7,8.7,0,0,0-1.94-12.11h0c-3.86-2.8-8.46-1.14-12.11,1.93l-22.5,18.93-3.27-28.92,1.26-48.32a8.84,8.84,0,0,0-17.67-.46L169.57,263l-2.82.1,1.74-66.77a8.84,8.84,0,0,0-17.67-.46l-1.76,67.85-2.82.1,1.49-57.47a8.84,8.84,0,0,0-17.67-.46l-1.52,58.55-2.82.1,1.1-42.24a8.84,8.84,0,0,0-17.67-.46L108,265.11l-.3,6,2.18,55.79a28.81,28.81,0,0,0,6.69,17.69,13.63,13.63,0,0,0,2.89,2.49Z"></path> <path class="cls-4" d="M182.94,363.49l-66.75-1.1-.07,12.92,66.75,1.1.07-12.92Z"></path> <path class="cls-4" d="M174,212.68l-.28,7.62,11.87.28.28-7.62C186.14,207,173.67,206.73,174,212.68Z"></path> <path class="cls-4" d="M153.9,195l-.28,7.62,11.87.28.28-7.62c.22-6-12.25-6.23-11.87-.28Z"></path> <path class="cls-4" d="M132.79,204.4l-.28,7.62,11.87.28.28-7.62C144.88,198.68,132.41,198.45,132.79,204.4Z"></path> <path class="cls-4" d="M111.54,221l-.28,7.62,11.87.28.28-7.62c.22-6-12.25-6.23-11.87-.28Z"></path> <path class="cls-4" d="M217.74,273.34l-6.59,6.48,8.38,8.42,6.59-6.48c4.28-4.21-4.13-12.6-8.38-8.42Z"></path> <path class="cls-8" d="M280.56,246.84c3.87-2.8,8.48-1.14,12.14,1.94l22.71,19.11,1.7-5.71L318.75,248l-.8-30.84-.7-31.1a8.81,8.81,0,0,1,8.62-9.08A9,9,0,0,1,335,185.6l1.29,53.32,2.35.08-.84-12.43a8.75,8.75,0,0,1,8.62-9.08,9,9,0,0,1,9.08,8.62l.91,13.51,2.66.09L358.3,231a8.63,8.63,0,0,1,8.62-9.08h0a9.17,9.17,0,0,1,9.08,8.62l.84,9.79,3.19.11-.22-5a8.75,8.75,0,0,1,8.62-9.08,9,9,0,0,1,9.08,8.62l.45,10.36.24,1.76L396,303a28.86,28.86,0,0,1-6.71,17.73,13.68,13.68,0,0,1-2.9,2.49L390,418a159.37,159.37,0,0,1-65.59,3.74L328.53,321c-5.78-2.71-13.56-9.4-15.27-14.21l0,0L278.62,259a8.72,8.72,0,0,1,1.94-12.14Z"></path> <path class="cls-4" d="M322.84,339.66l66.88-1.11.07,12.95-66.88,1.1-.07-12.95Z"></path> <path class="cls-4" d="M331.75,182.84l.28,7.64-11.9.28-.28-7.64c-.22-6,12.27-6.24,11.9-.28ZM288,247.53h0l6.6,6.49-8.4,8.44-6.6-6.49c-4.28-4.22,4.14-12.62,8.4-8.44Z"></path> <path class="cls-9" d="M113.89,375.34,106.76,464a255,255,0,0,0,79.83,38.46L185,376.16Z"></path> <path class="cls-9" d="M320.79,352.36l-1.32,151.7a254.78,254.78,0,0,0,82.65-37.86L392,351.54Z"></path> <path class="cls-10" d="M129.23,389.74a6.48,6.48,0,1,0,6.58,6.54,6.57,6.57,0,0,0-6.58-6.54Z"></path> <path class="cls-10" d="M376.66,366a6.49,6.49,0,1,1-6.59,6.55,6.59,6.59,0,0,1,6.59-6.55Z"></path> </svg> 