<?xml version="1.0" encoding="UTF-8"?> <svg xmlns="http://www.w3.org/2000/svg" id="Layer_1" data-name="Layer 1" viewBox="0 0 512 512"> <defs> <style>.cls-1{fill:#e84e1b;}.cls-2{fill:#694b4b;}.cls-3{fill:#5a4146;}.cls-4{fill:#785550;}.cls-5{fill:#e6af78;}.cls-6{fill:#eff2fa;}.cls-7{fill:#d29b6e;}.cls-8{fill:#e4eaf6;}.cls-9{fill:#f0c087;}.cls-10{fill:#5b5d6e;}.cls-11{fill:#515262;}.cls-12{fill:#f8f8f8;}.cls-13{fill:#f0ebe9;}.cls-14{fill:#bdbdbd;}</style> </defs> <title>Lassociation</title> <path class="cls-1" d="M256,0C397.39,0,512,114.61,512,256S397.39,512,256,512,0,397.38,0,256,114.62,0,256,0Z"></path> <path class="cls-2" d="M118,176.75c-67.55,0-60.06,82.15-59.75,141.68a6.36,6.36,0,0,0,3.12,5.44c7.49,4.51,28,15.06,56.64,15.06s49.15-10.55,56.64-15.06a6.36,6.36,0,0,0,3.12-5.44C178.08,258.9,185.57,176.75,118,176.75Z"></path> <path class="cls-3" d="M113.67,176.92c-62.83,3.52-55.7,83.3-55.4,141.51a6.35,6.35,0,0,0,3.12,5.44c7.49,4.51,28,15.06,56.64,15.06l17.07-119.5"></path> <path class="cls-2" d="M118,176.75c-38.41,0-41.08,46.41-41.08,46.41,22.14-3.73,35.74,5.6,58.15-3.73L118,338.93c28.6,0,49.15-10.55,56.64-15.06a6.36,6.36,0,0,0,3.12-5.44C178.08,258.9,185.57,176.75,118,176.75Z"></path> <path class="cls-4" d="M177.77,318.43c.26-51.15,5.79-119-35.51-137-.72,3.74-2,14.19,1.37,21,8.54,17.07,17.07,17.07,25.61,29.88,8.54,46.95-16.31,96.77-24.56,103.56h0a107.37,107.37,0,0,0,30-11.92A6.36,6.36,0,0,0,177.77,318.43Z"></path> <path class="cls-5" d="M182.69,331.37l-38.08-15.87a8.54,8.54,0,0,1-5.25-7.88V297.31H96.68v10.31a8.54,8.54,0,0,1-5.25,7.88L53.34,331.37a12.8,12.8,0,0,0-7.88,11.82v17.07A8.54,8.54,0,0,0,54,368.8H182a8.54,8.54,0,0,0,8.54-8.54V343.19A12.8,12.8,0,0,0,182.69,331.37Z"></path> <path class="cls-6" d="M182.69,331.37,145.87,316l-27.85,12L90.17,316,53.34,331.38a12.8,12.8,0,0,0-7.88,11.82v17.07A8.54,8.54,0,0,0,54,368.8H182a8.54,8.54,0,0,0,8.54-8.54V343.19A12.8,12.8,0,0,0,182.69,331.37Z"></path> <path class="cls-7" d="M139.36,297.31H96.68v10.31a8.54,8.54,0,0,1-5.25,7.88L85.48,318C131,329.59,139.36,297.31,139.36,297.31Z"></path> <path class="cls-8" d="M66.27,347.88,49.14,334.26a12.78,12.78,0,0,0-3.67,8.94v17.07A8.54,8.54,0,0,0,54,368.8H71.07V357.88A12.81,12.81,0,0,0,66.27,347.88Z"></path> <path class="cls-8" d="M190.57,360.27V343.19a12.78,12.78,0,0,0-3.62-8.88l-17.19,13.57a12.8,12.8,0,0,0-4.81,10V368.8H182A8.53,8.53,0,0,0,190.57,360.27Z"></path> <path class="cls-8" d="M118.66,360.27h-1.28a3.63,3.63,0,0,1-3.63-3.63V328.06h8.54v28.57A3.63,3.63,0,0,1,118.66,360.27Z"></path> <path class="cls-8" d="M118,328.05,93.59,309.73a3.41,3.41,0,0,0-4.89.84l-4.83,7.24,15,21a3.41,3.41,0,0,0,4.91.68Z"></path> <path class="cls-8" d="M118,328.05l24.43-18.32a3.41,3.41,0,0,1,4.89.84l4.83,7.24-15,21a3.41,3.41,0,0,1-4.91.68Z"></path> <path class="cls-9" d="M139.36,215.16C118,236.5,76.14,219.42,76.14,253.57l2.65,25.15a17.07,17.07,0,0,0,8.71,13.38l24.3,13.5a12.8,12.8,0,0,0,12.44,0l24.3-13.5a17.07,17.07,0,0,0,8.71-13.38l3.06-29.87a47.09,47.09,0,0,0,.19-6.39C158.9,231.59,143.63,223.69,139.36,215.16Z"></path> <path class="cls-5" d="M76.14,253.57l2.65,25.15a17.07,17.07,0,0,0,8.71,13.38l24.3,13.5a12.75,12.75,0,0,0,8.69,1.3h0s-12.25-3.71-19.54-23.45c-2.23-6-5.33-38.06-2.67-42,5.27-7.73,34.68-8.54,43.36-22.88q-.64-.8-1.19-1.6l-.09-.13a16.23,16.23,0,0,1-1-1.71C118,236.5,76.14,219.42,76.14,253.57Z"></path> <path class="cls-8" d="M149.17,360.27h-11.1a7.26,7.26,0,0,0-7.26,7.26v1.28h25.61v-1.28A7.25,7.25,0,0,0,149.17,360.27Z"></path> <polygon class="cls-5" points="409.61 311.53 409.61 288.09 349.33 288.09 349.33 311.53 379.47 338.32 409.61 311.53"></polygon> <path class="cls-6" d="M456.21,322.5l-41.44-9.75A6.65,6.65,0,0,1,413,312l-33.56,19.58L347.22,311.1a6.67,6.67,0,0,1-3,1.65l-41.44,9.75a13.39,13.39,0,0,0-10.33,13v26.23a6.7,6.7,0,0,0,6.7,6.7H459.84a6.7,6.7,0,0,0,6.7-6.7V335.54A13.4,13.4,0,0,0,456.21,322.5Z"></path> <path class="cls-7" d="M349.33,288.09v24.73c38,13.68,60.28-20.56,60.28-20.56v-4.18Z"></path> <path class="cls-9" d="M335.94,211.07l2.92,64.2a20.09,20.09,0,0,0,8,15.16l13.85,10.38a20.09,20.09,0,0,0,12.05,4h13.39a20.09,20.09,0,0,0,12.05-4l13.85-10.38a20.09,20.09,0,0,0,8-15.16l2.92-64.2Z"></path> <path class="cls-5" d="M369.42,224.47c13.39,0,33.49-3.35,38.25-13.39H335.94l2.92,64.2a20.09,20.09,0,0,0,8,15.16l13.85,10.38a20.09,20.09,0,0,0,12.05,4h6.7c-6.7,0-20.09-13.39-20.09-30.14V234.51C359.38,231.16,362.72,224.47,369.42,224.47Z"></path> <path class="cls-8" d="M441.95,346.73l21.7-19.49a13.37,13.37,0,0,1,2.88,8.3v26.23a6.7,6.7,0,0,1-6.7,6.7H436.4v-9.28A16.74,16.74,0,0,1,441.95,346.73Z"></path> <polygon class="cls-10" points="387.84 368.46 371.1 368.46 373.19 338.32 385.75 338.32 387.84 368.46"></polygon> <path class="cls-11" d="M387.84,331.62H371.1v1.93a8.11,8.11,0,0,0,8.11,8.11h.52a8.11,8.11,0,0,0,8.11-8.11v-1.93Z"></path> <path class="cls-8" d="M348.86,304.08l30.61,27.55a115.47,115.47,0,0,0-19.15,13,4.3,4.3,0,0,1-6.65-1.5l-14.38-31.64,4.55-6.82A3.35,3.35,0,0,1,348.86,304.08Z"></path> <path class="cls-8" d="M410.08,304.08l-30.61,27.55a115.47,115.47,0,0,1,19.15,13,4.3,4.3,0,0,0,6.65-1.5l14.38-31.64-4.55-6.82A3.35,3.35,0,0,0,410.08,304.08Z"></path> <path class="cls-4" d="M399.77,188.89l3.14,22.18c14.33,2.87,16.4,25.35,16.69,31.78a6.61,6.61,0,0,0,1.06,3.27l5.47,8.48s-1.87-14,6.7-23.44C432.83,231.16,435.77,175.49,399.77,188.89Z"></path> <path class="cls-9" d="M429.49,253.17,425.7,268.3a4,4,0,0,1-3.91,3h0a4,4,0,0,1-4-3.53l-1.93-15.47a6.93,6.93,0,0,1,6.88-7.79h0A6.93,6.93,0,0,1,429.49,253.17Z"></path> <path class="cls-2" d="M339.14,182.89l5,3.38c-22.39,16.53-18.21,44.89-18.21,44.89,6.7,6.7,6.7,23.44,6.7,23.44l6.7-6.7s-2.58-19.35,10-26.79c11.72-6.91,22-3.35,32.44-3.35,28,0,35.89-10.57,34.53-23.44-.7-6.66-10.89-20.53-36.83-20.09C369,174.41,349.33,177.59,339.14,182.89Z"></path> <path class="cls-3" d="M337.19,214.84s-3.56-14,6.91-28.57c-22.39,16.53-18.21,44.89-18.21,44.89,6.7,6.7,6.7,23.44,6.7,23.44l6.7-6.7s-2.58-19.35,10-26.79c11.72-6.91,22-3.35,32.44-3.35a82.35,82.35,0,0,0,12.08-.83C372.25,217.66,359.52,201.31,337.19,214.84Z"></path> <path class="cls-5" d="M329.45,253.17l3.78,15.13a4,4,0,0,0,3.91,3h0a4,4,0,0,0,4-3.53l1.93-15.47a6.93,6.93,0,0,0-6.88-7.79h0A6.93,6.93,0,0,0,329.45,253.17Z"></path> <path class="cls-8" d="M419.65,361.76H402.91a6.7,6.7,0,0,0-6.7,6.7h30.14A6.7,6.7,0,0,0,419.65,361.76Z"></path> <path class="cls-2" d="M256.13,92.75C141.29,92.75,154,232.41,154.54,333.61a10.81,10.81,0,0,0,5.3,9.24c12.73,7.67,47.67,25.61,96.29,25.61s83.56-17.94,96.29-25.61a10.81,10.81,0,0,0,5.3-9.24C358.23,232.41,371,92.75,256.13,92.75Z"></path> <path class="cls-3" d="M248.73,93C141.92,99,154,234.66,154.54,333.61a10.81,10.81,0,0,0,5.3,9.24c12.73,7.67,47.67,25.61,96.29,25.61l29-203.15"></path> <path class="cls-2" d="M256.13,92.75c-65.3,0-69.83,78.9-69.83,78.9,37.64-6.35,60.76,9.52,98.85-6.35l-29,203.15c48.61,0,83.56-17.94,96.29-25.61a10.81,10.81,0,0,0,5.3-9.24C358.23,232.41,371,92.75,256.13,92.75Z"></path> <path class="cls-4" d="M357.71,333.61c.45-87,9.84-202.23-60.37-233-1.22,6.36-3.44,24.12,2.32,35.65,14.51,29,29,29,43.53,50.79,14.51,79.81-27.73,164.52-41.75,176h0a182.51,182.51,0,0,0,51-20.27A10.81,10.81,0,0,0,357.71,333.61Z"></path> <path class="cls-5" d="M366.07,355.62l-64.74-27a14.51,14.51,0,0,1-8.93-13.4V297.72H219.85v17.53a14.51,14.51,0,0,1-8.93,13.4l-64.74,27a21.77,21.77,0,0,0-13.39,20.09v29a14.51,14.51,0,0,0,14.51,14.51H365a14.51,14.51,0,0,0,14.51-14.51v-29A21.76,21.76,0,0,0,366.07,355.62Z"></path> <path class="cls-12" d="M366.07,355.62l-62.6-26.08L256.13,350l-47.35-20.44-62.6,26.08a21.77,21.77,0,0,0-13.39,20.09v29a14.51,14.51,0,0,0,14.51,14.51H365a14.51,14.51,0,0,0,14.51-14.51v-29A21.76,21.76,0,0,0,366.07,355.62Z"></path> <path class="cls-7" d="M292.4,297.72H219.85v17.53a14.51,14.51,0,0,1-8.93,13.4l-10.11,4.21C278.19,352.59,292.4,297.72,292.4,297.72Z"></path> <path class="cls-13" d="M168.15,383.69,139,360.52a21.72,21.72,0,0,0-6.24,15.19v29a14.51,14.51,0,0,0,14.51,14.51h29V400.69A21.77,21.77,0,0,0,168.15,383.69Z"></path> <path class="cls-13" d="M379.47,404.73v-29a21.72,21.72,0,0,0-6.15-15.1L344.1,383.69a21.77,21.77,0,0,0-8.17,17v18.56h29A14.51,14.51,0,0,0,379.47,404.73Z"></path> <path class="cls-13" d="M256.13,404.73h0a7.26,7.26,0,0,1-7.26-7.26V350h14.51v47.49A7.25,7.25,0,0,1,256.13,404.73Z"></path> <path class="cls-13" d="M256.13,350,214.6,318.83a5.8,5.8,0,0,0-8.31,1.42l-8.21,12.31,25.46,35.64a5.8,5.8,0,0,0,8.35,1.16Z"></path> <path class="cls-13" d="M256.13,350l41.53-31.14a5.8,5.8,0,0,1,8.31,1.42l8.21,12.31L288.71,368.2a5.8,5.8,0,0,1-8.35,1.16Z"></path> <path class="cls-9" d="M292.4,158.05c-36.28,36.28-107.47,7.26-107.47,65.3l4.51,42.76a29,29,0,0,0,14.81,22.74l41.31,22.95a21.77,21.77,0,0,0,21.14,0L308,288.85a29,29,0,0,0,14.81-22.74l5.2-50.78a80,80,0,0,0,.33-10.86C325.63,186,299.66,172.56,292.4,158.05Z"></path> <path class="cls-5" d="M184.93,223.35l4.51,42.76a29,29,0,0,0,14.81,22.74l41.31,22.95A21.67,21.67,0,0,0,260.33,314h0s-20.83-6.31-33.22-39.87c-3.8-10.28-9.07-64.69-4.53-71.34,9-13.15,59-14.51,73.72-38.9q-1.1-1.36-2-2.72l-.16-.22a27.42,27.42,0,0,1-1.71-2.9C256.13,194.33,184.93,165.31,184.93,223.35Z"></path> <path class="cls-14" d="M314.17,404.73h-29a7.26,7.26,0,0,0-7.26,7.26v7.26h43.53V412A7.26,7.26,0,0,0,314.17,404.73Z"></path> </svg> 